<svg width="1728" height="1158" viewBox="0 0 1728 1158" fill="none" xmlns="http://www.w3.org/2000/svg">
<g clip-path="url(#clip0_71_525)">
<rect width="1728" height="1158" fill="#F0F0F0"/>
<g clip-path="url(#clip1_71_525)">
<rect width="1989.44" height="1286" transform="translate(-130.722 -43)" fill="url(#paint0_linear_71_525)"/>
<path d="M460.511 1002.46C414.841 1021.58 397.495 1068.47 427.345 1095.24C488.758 1150.32 741.586 1123.11 753.482 1085.78C765.2 1048.99 555.81 962.531 460.511 1002.46Z" stroke="#FFF6F6" stroke-opacity="0.03" stroke-width="3.87087" stroke-miterlimit="10"/>
<path d="M573.675 879.941C677.995 843.389 853.158 1103.63 780.855 1165.07C736.401 1202.85 628.787 1198.13 541.028 1185.71C458.643 1174.06 340.924 1126.41 311.882 1047.27C296.503 1005.25 305.735 945.394 338.304 924.432C363.511 908.212 397.539 915.509 405.046 912.812C440.833 927.66 446.084 933.431 474.596 936.914C511.864 941.469 544.986 889.992 573.675 879.941Z" stroke="#FFF6F6" stroke-opacity="0.03" stroke-width="3.87087" stroke-miterlimit="10"/>
<path d="M679.52 751.943C800.677 771.292 932.337 1151.41 800.909 1238.88C717.208 1294.59 571.287 1269.99 469.577 1240.54C376.147 1213.49 220.574 1123.2 189.099 993.81C170.803 918.627 193.035 812.863 256.737 782.27C307.515 757.891 372.941 778.854 384.461 780.468C452.551 817.109 458.057 835.75 508.758 848.298C575.886 864.894 628.886 743.817 679.52 751.943Z" stroke="#FFF6F6" stroke-opacity="0.03" stroke-width="3.87087" stroke-miterlimit="10"/>
<path d="M777.693 624.796C911.464 660.464 1003.84 1199.72 813.292 1313.53C690.311 1386.98 506.038 1342.92 390.453 1296.21C285.89 1253.96 93.1158 1121.02 58.6449 941.193C37.8495 832.742 72.5526 681.305 167.486 640.95C243.769 608.511 341.19 641.801 356.181 648.965C460.987 699.083 462.313 738.908 535.28 760.523C632.203 789.313 707.634 606.156 777.693 624.796Z" stroke="#FFF6F6" stroke-opacity="0.03" stroke-width="3.87087" stroke-miterlimit="10"/>
<path d="M869.962 503.432C1018.11 554.888 1069.2 1253.28 819.77 1393.98C657.343 1484.78 434.796 1421.75 305.436 1357.68C189.619 1300.33 -40.1137 1124.75 -77.7576 894.359C-100.897 752.739 -53.8778 555.573 72.2984 505.389C174.13 464.923 302.772 512.388 321.975 523.212C457.073 599.367 460.567 648.015 555.776 678.541C682.516 719.526 781.286 472.64 869.962 503.432Z" stroke="#FFF6F6" stroke-opacity="0.03" stroke-width="3.87087" stroke-miterlimit="10"/>
<path d="M-27.0351 371.443C100.302 322.961 260.087 384.533 283.624 399.083C448.649 501.11 454.752 558.37 572.172 598.096C728.75 651.066 851.444 339.822 958.008 383.604C1121.7 450.86 1130.88 1309.28 822.025 1475.96C620.495 1584.72 359.243 1502.2 216.185 1420.68C89.1358 1348.3 -177.39 1130.07 -218.295 849.072C-243.722 674.295 -184.476 431.378 -27.0351 371.443Z" stroke="#FFF6F6" stroke-opacity="0.03" stroke-width="3.87087" stroke-miterlimit="10"/>
<path d="M1350.88 282.993C1300.72 282.572 1240.56 195.571 1285.55 181.043C1311.53 172.64 1380.32 185.93 1407.34 209.579C1445.39 242.858 1385.39 283.291 1350.88 282.993Z" stroke="#FFF6F6" stroke-opacity="0.03" stroke-width="3.87087" stroke-miterlimit="10"/>
<path d="M1214.56 193.227C1219.47 181.551 1242.45 176.366 1263.43 162.148C1305.97 133.291 1312.07 119.581 1342.29 102.179C1354.07 95.3792 1369.92 86.4457 1385.4 90.5365C1409.1 96.8054 1415.02 123.937 1445.1 171.723C1484.1 233.814 1498.87 249.868 1487.73 282.771C1485.13 290.422 1481.77 315.199 1462.99 330.313C1436.98 351.21 1406.48 335.068 1368.36 348.899C1322.58 365.483 1299.89 395.003 1280.02 381.957C1266.02 372.769 1265.5 347.605 1255.02 303.789C1247.04 270.411 1242.02 248.508 1232.32 230.641C1220.67 209.369 1209.1 206.207 1214.56 193.227Z" stroke="#FFF6F6" stroke-opacity="0.03" stroke-width="3.87087" stroke-miterlimit="10"/>
<path d="M1137.89 217.562C1138.74 196.864 1171.25 186.848 1198.03 156.94C1252.97 95.5893 1227.52 51.7512 1271.55 6.92922C1290.24 -12.0986 1319.56 -30.5293 1348.94 -26.9582C1390.64 -21.8833 1404.65 21.2028 1468.85 108.558C1552.78 222.769 1588.53 245.136 1580.7 306.001C1579.09 318.406 1577.53 366.036 1544.73 394.705C1500.99 432.937 1448.55 398.154 1380.06 426.89C1303.54 458.953 1274.94 527.501 1249.13 513.316C1231.21 503.465 1238.08 463.795 1224.3 386.424C1214.55 331.43 1208.53 299.29 1189.03 272.965C1164.44 239.763 1136.97 240.039 1137.89 217.562Z" stroke="#FFF6F6" stroke-opacity="0.03" stroke-width="3.87087" stroke-miterlimit="10"/>
<path d="M1061.14 241.631C1057.83 211.967 1099.92 197.052 1132.56 151.456C1199.78 57.5889 1141.83 -15.7803 1200.74 -88.5968C1225.96 -119.753 1269.21 -147.626 1312.4 -144.718C1372.27 -140.694 1394.39 -81.9851 1492.61 45.1285C1621.73 211.215 1677.34 240.459 1673.7 328.964C1672.98 346.223 1673.31 416.585 1626.51 458.864C1565.02 514.4 1490.53 460.91 1391.8 504.637C1284.45 552.179 1250.05 659.723 1218.23 644.443C1196.4 633.874 1210.38 579.742 1193.57 468.815C1181.96 392.206 1174.96 349.982 1145.73 315.045C1108.05 270.024 1064.69 273.584 1061.14 241.631Z" stroke="#FFF6F6" stroke-opacity="0.03" stroke-width="3.87087" stroke-miterlimit="10"/>
<path d="M984.22 265.634C976.78 227.037 1028.33 207.169 1066.92 145.917C1146.27 19.478 1055.69 -83.135 1129.77 -184.178C1161.43 -227.408 1218.72 -264.734 1275.7 -262.545C1353.77 -259.537 1383.65 -185.007 1516.14 -18.3564C1690.06 199.894 1765.74 235.937 1766.42 351.873C1766.55 373.986 1768.74 467.013 1708 522.957C1628.69 595.73 1532.28 523.565 1403.26 582.329C1265.06 645.284 1224.85 791.923 1187.15 775.515C1161.4 764.26 1182.51 695.623 1162.66 551.151C1149.16 452.916 1141.23 400.664 1102.26 357.069C1051.47 300.285 992.225 307.139 984.22 265.634Z" stroke="#FFF6F6" stroke-opacity="0.03" stroke-width="3.87087" stroke-miterlimit="10"/>
<path d="M907.153 289.626C919.612 340.706 994.723 330.534 1058.61 399.083C1107.33 451.346 1116.19 513.604 1131.58 633.475C1154.43 811.481 1126.22 894.635 1155.9 906.565C1199.54 924.111 1245.54 738.366 1414.6 660.011C1573.86 586.199 1692.38 677.192 1789.38 587.039C1864.16 517.529 1860 401.836 1859.03 374.759C1853.88 231.426 1758.24 188.55 1539.53 -81.8635C1372.75 -288.051 1335.14 -378.381 1238.82 -380.382C1168.06 -381.853 1096.7 -335.052 1058.61 -279.77C969.428 -150.412 1092.81 -18.5002 1001.12 140.367C956.692 217.352 895.555 242.107 907.153 289.626Z" stroke="#FFF6F6" stroke-opacity="0.03" stroke-width="3.87087" stroke-miterlimit="10"/>
<path d="M1544.56 1111.77C1531.47 1105.13 1503.98 1117.92 1501.55 1137.83C1498.8 1160.42 1529.9 1179.1 1543.56 1173.3C1559.72 1166.42 1561.92 1120.55 1544.56 1111.77Z" stroke="#FFF6F6" stroke-opacity="0.03" stroke-width="3.87087" stroke-miterlimit="10"/>
<path d="M1581.44 1231.78C1603.75 1210.92 1613.5 1172.63 1624.65 1107C1635.71 1041.93 1633.97 995.335 1624.26 991.952C1618.96 990.128 1603.96 1004.4 1591.09 1014.86C1567 1034.39 1525.76 1032.22 1515.19 1034.33C1476.5 1042.07 1465.13 1056.44 1448.96 1083.97C1441.47 1096.69 1424.02 1124.88 1416.33 1158.05C1404.62 1208.28 1352.09 1223.76 1358.49 1243.89C1363.88 1260.7 1415.91 1264.78 1449.66 1265.25C1498.01 1265.94 1546.94 1264 1581.44 1231.78Z" stroke="#FFF6F6" stroke-opacity="0.03" stroke-width="3.87087" stroke-miterlimit="10"/>
<path d="M1620.11 1287.87C1656.78 1250.59 1671.21 1188.02 1693.43 1071.02C1716 953.443 1715.86 872.799 1704.74 869.792C1696.39 867.492 1669.36 896.559 1646.39 917.333C1603.08 956.66 1525.56 950.193 1509.59 952.713C1436.73 963.969 1418.78 990.935 1390.54 1041.9C1378.78 1063.13 1346.51 1114.88 1331.8 1175.98C1309.17 1269.6 1201.88 1294.11 1210.76 1328.81C1218.18 1357.71 1317.68 1362.15 1380.28 1359.77C1468.68 1356.33 1558.14 1350.89 1620.11 1287.87Z" stroke="#FFF6F6" stroke-opacity="0.03" stroke-width="3.87087" stroke-miterlimit="10"/>
<path d="M1658.57 1343.6C1709.64 1289.91 1728.57 1203.02 1761.98 1034.66C1795.91 864.562 1797.49 750.053 1785 747.2C1773.56 744.546 1734.52 788.329 1701.51 819.475C1639.1 878.703 1525.2 867.813 1503.81 870.665C1396.81 884.95 1372.17 924.896 1331.95 999.415C1315.9 1029.15 1268.83 1104.45 1247.09 1193.46C1213.58 1330.47 1051.5 1363.99 1062.84 1413.28C1072.3 1454.28 1219.28 1459.24 1310.73 1453.82C1439.15 1446.57 1569.28 1437.49 1658.57 1343.6Z" stroke="#FFF6F6" stroke-opacity="0.03" stroke-width="3.87087" stroke-miterlimit="10"/>
<path d="M1696.91 1399.29C1762.4 1329.19 1785.83 1217.96 1830.43 998.265C1875.76 775.659 1879.07 627.317 1865.16 624.564C1850.62 621.656 1799.55 679.978 1756.52 721.516C1674.89 800.513 1524.73 785.311 1497.92 788.573C1356.79 805.699 1325.27 858.724 1273.24 956.871C1252.84 995.081 1191.05 1093.97 1162.28 1210.9C1117.86 1391.29 901.006 1433.84 914.825 1497.71C926.312 1550.78 1120.78 1556.07 1241.08 1547.83C1409.47 1536.47 1580.33 1524.08 1696.91 1399.29Z" stroke="#FFF6F6" stroke-opacity="0.03" stroke-width="3.87087" stroke-miterlimit="10"/>
<path d="M1491.99 706.447C1316.72 726.348 1278.62 792.685 1214.49 914.304C1189.84 961.061 1113.2 1083.46 1077.41 1228.3C1022.13 1452.1 750.463 1503.66 766.748 1582.1C780.28 1647.33 1022.22 1652.86 1171.38 1641.81C1379.8 1626.33 1591.37 1610.65 1735.21 1454.95C1815.13 1368.44 1843.03 1232.91 1898.83 961.846C1955.47 686.722 1960.52 504.582 1945.26 501.906C1927.57 498.81 1864.56 571.561 1811.49 623.525C1710.62 722.279 1524.23 702.787 1491.99 706.447Z" stroke="#FFF6F6" stroke-opacity="0.03" stroke-width="3.87087" stroke-miterlimit="10"/>
<path d="M66.9365 174.641C86.8364 250.929 229.673 215.096 399.706 386.921C460.633 448.493 501.483 512.896 582.122 522.913C590.259 523.919 671.041 532.753 728.054 480.899C799.782 415.667 756.002 325.172 839.714 198.965C870.548 152.474 875.678 165.973 898.308 129.311C994.889 -27.1904 847.586 -186.069 932.58 -345.002C971.706 -418.161 1029.87 -434.956 1024.34 -444.508C1000.48 -485.494 13.1627 -30.9274 66.9365 174.641Z" stroke="#FFF6F6" stroke-opacity="0.03" stroke-width="3.87087" stroke-miterlimit="10"/>
<path d="M604.233 418.62C609.119 417.956 662.384 421.936 698.923 385.274C745.124 338.981 712.189 275.242 765.123 189.191C784.603 157.504 787.311 166.095 801.175 141.03C860.322 34.0723 754.167 -73.5271 806.15 -178.23C830.207 -226.7 868.182 -237.812 862.533 -242.544C836.984 -264.126 185.296 54.7032 236.483 193.437C255.676 245.468 360.448 227.004 480.334 339.07C523.926 379.79 553.444 425.508 604.233 418.62Z" stroke="#FFF6F6" stroke-opacity="0.03" stroke-width="3.87087" stroke-miterlimit="10"/>
<path d="M626.344 314.315C627.737 310.81 653.783 310.887 669.792 289.648C690.576 262.096 668.443 225.39 690.532 179.429C698.635 162.557 698.967 166.161 704.052 152.75C725.887 95.0696 660.66 39.0808 679.73 -11.4684C688.652 -35.2614 705.235 -39.3191 700.813 -40.5905C668.487 -36.0022 358.093 140.643 405.975 212.233C424.67 240.205 491.588 238.867 560.906 291.218C587.251 311.12 604.498 325.692 626.344 314.315Z" stroke="#FFF6F6" stroke-opacity="0.03" stroke-width="3.87087" stroke-miterlimit="10"/>
<path d="M648.455 210.021C631.296 159.881 563.747 142.833 539.005 161.374C502.522 188.749 533.643 224.394 575.488 231.028C606.764 235.948 668.089 267.403 648.455 210.021Z" stroke="#FFF6F6" stroke-opacity="0.03" stroke-width="3.87087" stroke-miterlimit="10"/>
</g>
</g>
<defs>
<linearGradient id="paint0_linear_71_525" x1="155.222" y1="320" x2="1856.22" y2="947" gradientUnits="userSpaceOnUse">
<stop stop-color="#0C3512"/>
<stop offset="1" stop-color="#147323"/>
</linearGradient>
<clipPath id="clip0_71_525">
<rect width="1728" height="1158" fill="white"/>
</clipPath>
<clipPath id="clip1_71_525">
<rect width="1989.44" height="1286" fill="white" transform="translate(-130.722 -43)"/>
</clipPath>
</defs>
</svg>
