<svg xmlns="http://www.w3.org/2000/svg" version="1.1" xmlns:xlink="http://www.w3.org/1999/xlink" width="1000" height="1000"><g clip-path="url(#SvgjsClipPath1079)"><rect width="1000" height="1000" fill="#ffffff"></rect><g transform="matrix(1.1286681715575622,0,0,1.1286681715575622,-5.684341886080802e-14,314.8984198645598)"><svg xmlns="http://www.w3.org/2000/svg" version="1.1" xmlns:xlink="http://www.w3.org/1999/xlink" width="886" height="328"><svg width="886" height="328" viewBox="0 0 886 328" fill="none" xmlns="http://www.w3.org/2000/svg">
<g clip-path="url(#clip0_101_159)">
<rect width="886" height="255" fill="white"></rect>
<rect width="290" height="255" fill="#147323"></rect>
<path d="M150.808 17.6143C171.35 17.6143 190.17 21.0662 207.262 27.9756C224.357 34.8863 238.243 44.8393 248.907 57.8369L249.148 58.1309L248.857 58.376L235.15 69.9619L234.852 70.2148L234.604 69.9111C225.261 58.4819 213.336 49.7509 198.819 43.7197L198.812 43.7178V43.7158C184.543 37.4774 168.543 34.3555 150.808 34.3555C130.76 34.3555 112.807 38.1658 96.9404 45.7783L95.4111 46.5273C79.6757 54.3869 67.2986 65.0714 58.2695 78.5801L57.4062 79.8965C48.3115 94.0249 43.7607 110.13 43.7607 128.224C43.7608 146.317 48.3115 162.422 57.4062 176.551L58.2695 177.866C67.2849 191.37 79.4157 201.95 94.6709 209.606L96.1543 210.336C111.556 217.752 129.277 221.465 149.326 221.465C169.04 221.465 186.146 218.029 200.655 211.169L202.006 210.517C215.866 203.684 226.718 193.93 234.574 181.253C241.682 169.599 245.679 156.021 246.556 140.508H145.236V124.706H267.888V127.91C267.888 151.346 262.936 171.354 253.015 187.917C243.342 204.268 229.577 216.739 211.73 225.329C194.134 233.918 173.576 238.206 150.067 238.206C131.753 238.206 114.792 235.486 99.1875 230.043L99.1826 230.042C84.0711 224.568 70.9276 217.126 59.7568 207.716L58.6826 206.799C47.2824 196.953 38.3586 185.325 31.9141 171.916L31.9111 171.911C25.7119 158.497 22.6143 143.933 22.6143 128.224C22.6143 112.512 25.8365 97.9457 32.2842 84.5303C38.7283 71.1224 47.6513 59.3905 59.0498 49.3369L59.0527 49.335L60.1504 48.3984C71.5523 38.7989 84.8116 31.3641 99.9238 26.0918L101.391 25.5703C116.591 20.265 133.064 17.6143 150.808 17.6143Z" fill="black" stroke="black" stroke-width="0.7713"></path>
<rect width="290" height="255" transform="translate(298)" fill="#147323"></rect>
<path d="M395.979 18.6177V176.075C395.979 190.33 399.963 201.601 407.897 209.932H407.898C415.917 218.249 428.176 222.443 444.752 222.443H504.054V234.925H444.752C425.248 234.925 410.013 229.948 399.101 219.945L399.099 219.942C388.279 209.83 382.895 195.186 382.895 176.075V18.6177H395.979Z" fill="black" stroke="black" stroke-width="0.758002"></path>
<path d="M398.253 16.6211V176.353L398.264 177.638C398.496 190.83 402.334 201.071 409.544 208.642L409.896 209C417.343 216.475 428.789 220.446 444.752 220.446H506.328V237.478H444.752C424.868 237.478 409.017 232.397 397.564 221.898L397.558 221.892V221.893L397.546 221.881C386.139 211.22 380.621 195.896 380.621 176.353V16.6211H398.253ZM383.653 176.351L383.656 177.238L383.668 178.104C383.989 196.209 389.321 210.044 399.616 219.666H399.615C410.18 229.349 424.907 234.289 443.847 234.441H443.846L444.754 234.445H503.296V223.479H444.751L443.975 223.476H443.973C427.67 223.346 415.437 219.121 407.352 210.736L407.351 210.734C399.379 202.364 395.348 191.113 395.224 177.024V177.023L395.221 176.354V19.6533H383.653V176.351Z" fill="black" stroke="black" stroke-width="0.758002"></path>
<rect width="290" height="255" transform="translate(596)" fill="#147323"></rect>
<path d="M807.23 18.6177V31.1001H735.753C719.437 31.1001 707.303 35.2114 699.278 43.3677L698.899 43.7593C690.965 52.0907 686.979 63.3625 686.979 77.6187V148.94H806.929V160.67H686.979V234.925H673.895V77.6187C673.895 58.507 679.279 43.8637 690.099 33.7515L690.1 33.7495L690.615 33.2798C701.49 23.4896 716.553 18.6177 735.753 18.6177H807.23Z" fill="black" stroke="black" stroke-width="0.758002"></path>
<path d="M809.504 16.6211V33.6514H735.753C719.582 33.6514 708.046 37.777 700.605 45.542L700.546 45.6055C693.103 53.4208 689.253 64.0821 689.253 77.8975V146.943H809.203V163.223H689.253V237.478H671.621V77.8975C671.621 58.3534 677.139 43.028 688.546 32.3672L688.556 32.3584L688.564 32.3506L689.094 31.8682L689.096 31.8662L689.633 31.3887C700.995 21.4413 716.479 16.6211 735.753 16.6211H809.504ZM734.847 19.6553L734.848 19.6562C715.908 19.8098 701.18 24.8015 690.615 34.584C679.992 44.5134 674.653 58.9306 674.653 77.8975V234.445H686.221V160.19H806.172V149.976H686.221V77.8975C686.221 63.4943 690.252 52.0182 698.351 43.5146L698.732 43.1201C706.819 34.8973 718.923 30.7525 734.973 30.623H734.975L735.751 30.6191H806.472V19.6533H735.755L734.847 19.6553Z" fill="black" stroke="black" stroke-width="0.758002"></path>
</g>
<rect width="886" height="73" transform="translate(0 255)" fill="white"></rect>
<path d="M48.1009 272.259L60.9111 305.229C61.6012 306.92 62.4121 308.084 63.3437 308.723C64.2754 309.344 65.4227 309.766 66.7857 309.991V310.741H48.722V309.991C51.1891 309.853 52.4227 309.076 52.4227 307.662C52.4227 307.437 52.3796 307.127 52.2933 306.73C52.2243 306.316 52.1208 305.885 51.9827 305.436C51.862 304.97 51.7843 304.685 51.7498 304.582L48.5667 296.482H37.1798L34.4625 304.271C34.1175 305.203 33.9449 306.048 33.9449 306.808C33.9449 307.981 34.29 308.774 34.9801 309.188C35.6702 309.585 36.4897 309.853 37.4386 309.991V310.741H26V309.991C27.1904 309.87 28.3033 309.318 29.3384 308.334C30.3736 307.334 31.3743 305.505 32.3404 302.848L43.1579 272.259H48.1009ZM38.0597 293.946H47.5574L42.6403 281.109L38.0597 293.946Z" fill="black"></path>
<path d="M80.7969 272.673H107.427C108.652 272.673 109.67 272.518 110.48 272.207H111.231L111.438 281.161H110.713C110.334 278.539 109.687 276.874 108.772 276.167C107.875 275.442 106.771 275.08 105.46 275.08H98.343V305.125C98.343 306.126 98.4552 306.98 98.6795 307.687C98.9038 308.378 99.361 308.947 100.051 309.395C100.741 309.827 101.75 310.042 103.079 310.042V310.793H85.1446V310.042C87.1287 310.042 88.414 309.594 89.0006 308.697C89.5872 307.8 89.8805 306.609 89.8805 305.125V275.08H82.7637C81.556 275.08 80.5726 275.468 79.8135 276.244C79.0544 277.003 78.3125 278.642 77.5879 281.161H76.7856L76.9927 272.207H77.7432C78.5541 272.518 79.572 272.673 80.7969 272.673Z" fill="black"></path>
<path d="M125.449 272.673H152.079C153.304 272.673 154.322 272.518 155.133 272.207H155.883L156.09 281.161H155.366C154.986 278.539 154.339 276.874 153.425 276.167C152.528 275.442 151.423 275.08 150.112 275.08H142.995V305.125C142.995 306.126 143.108 306.98 143.332 307.687C143.556 308.378 144.013 308.947 144.703 309.395C145.394 309.827 146.403 310.042 147.731 310.042V310.793H129.797V310.042C131.781 310.042 133.066 309.594 133.653 308.697C134.24 307.8 134.533 306.609 134.533 305.125V275.08H127.416C126.208 275.08 125.225 275.468 124.466 276.244C123.707 277.003 122.965 278.642 122.24 281.161H121.438L121.645 272.207H122.396C123.206 272.518 124.224 272.673 125.449 272.673Z" fill="black"></path>
<path d="M166.09 291.358C166.09 288.77 166.53 286.294 167.41 283.93C168.307 281.567 169.619 279.496 171.344 277.719C173.069 275.925 175.157 274.536 177.607 273.553C180.074 272.552 182.86 272.052 185.966 272.052C189.106 272.052 191.901 272.561 194.35 273.579C196.818 274.579 198.905 275.977 200.613 277.771C202.339 279.565 203.641 281.644 204.521 284.008C205.401 286.354 205.841 288.856 205.841 291.513C205.841 294.153 205.41 296.637 204.547 298.966C203.701 301.295 202.451 303.357 200.794 305.151C199.138 306.946 197.051 308.36 194.532 309.395C192.03 310.431 189.192 310.948 186.017 310.948C182.601 310.948 179.617 310.37 177.063 309.214C174.527 308.041 172.448 306.497 170.826 304.582C169.222 302.667 168.031 300.553 167.255 298.242C166.479 295.93 166.09 293.635 166.09 291.358ZM175.148 290.866C175.148 293.454 175.338 296.007 175.717 298.526C176.114 301.028 177.124 303.374 178.745 305.565C180.367 307.739 182.808 308.826 186.069 308.826C190.641 308.826 193.565 306.989 194.842 303.314C196.136 299.622 196.783 295.861 196.783 292.031C196.783 289.046 196.524 286.251 196.007 283.646C195.489 281.04 194.428 278.815 192.824 276.969C191.236 275.106 188.985 274.174 186.069 274.174C182.791 274.174 180.341 275.235 178.719 277.357C177.115 279.462 176.114 281.705 175.717 284.086C175.338 286.466 175.148 288.727 175.148 290.866Z" fill="black"></path>
<path d="M230.256 292.703H229.039V304.892C229.039 306.342 229.255 307.429 229.686 308.153C230.118 308.861 230.644 309.318 231.265 309.525C231.886 309.715 232.714 309.827 233.749 309.861V310.56H215.841V309.81C217.842 309.81 219.127 309.361 219.697 308.464C220.266 307.567 220.551 306.376 220.551 304.892V278.185C220.551 276.356 220.18 275.071 219.438 274.329C218.696 273.57 217.497 273.19 215.841 273.19V272.44H235.613C238.218 272.44 240.504 272.845 242.471 273.656C244.437 274.467 245.938 275.614 246.974 277.098C248.009 278.582 248.526 280.281 248.526 282.196C248.526 283.749 248.198 285.129 247.543 286.337C246.887 287.545 245.999 288.537 244.877 289.313C243.773 290.09 242.54 290.685 241.177 291.099C242.954 292.22 244.679 294.204 246.352 297.051L250.907 304.789C251.684 306.117 252.4 307.153 253.055 307.894C253.711 308.619 254.289 309.102 254.789 309.344C255.289 309.568 255.833 309.723 256.419 309.81V310.56H244.127C242.936 308.403 242.022 306.687 241.384 305.41C239.348 301.425 237.864 298.656 236.932 297.103C236.001 295.55 235.035 294.429 234.034 293.739C233.051 293.048 231.791 292.703 230.256 292.703ZM231.11 274.562H229.039V290.581H230.773C233.741 290.581 235.975 289.874 237.476 288.459C238.977 287.027 239.727 284.974 239.727 282.3C239.727 280.644 239.4 279.246 238.744 278.107C238.106 276.952 237.139 276.072 235.845 275.468C234.569 274.864 232.99 274.562 231.11 274.562Z" fill="black"></path>
<path d="M280.239 272.233L303.504 296.792V279.35C303.504 277.055 303.039 275.494 302.107 274.666C301.175 273.82 299.752 273.259 297.837 272.983V272.233H310.983V272.983C309.534 273.139 308.456 273.535 307.749 274.174C307.041 274.795 306.584 275.528 306.377 276.374C306.17 277.219 306.066 278.211 306.066 279.35V310.767H305.109L277.211 281.42V302.874C277.211 304.668 277.591 306.204 278.35 307.48C279.126 308.74 280.549 309.447 282.62 309.603V310.353H269.007V309.603C272.82 309.292 274.709 307.42 274.675 303.987V278.754C274.571 278.685 274.433 278.565 274.261 278.392C274.106 278.237 273.847 277.987 273.484 277.642C273.122 277.297 272.794 276.986 272.501 276.71C270.189 274.484 268.162 273.242 266.419 272.983V272.233H280.239Z" fill="black"></path>
<path d="M348.493 272.44L348.804 280.98H348.053C347.708 279.548 347.32 278.366 346.889 277.435C346.474 276.503 345.879 275.796 345.103 275.313C344.326 274.812 343.265 274.562 341.92 274.562H334.234V290.581H340.367C342.196 290.581 343.524 290.176 344.352 289.365C345.198 288.554 345.689 287.355 345.827 285.768H346.578V296.948H345.827C345.569 295.257 344.939 294.127 343.938 293.557C342.938 292.988 341.747 292.703 340.367 292.703H334.234V303.676C334.234 306.851 335.873 308.438 339.151 308.438H341.48C343.05 308.438 344.326 308.231 345.31 307.817C346.311 307.403 347.13 306.695 347.768 305.695C348.424 304.677 349.011 303.245 349.528 301.399H350.279L349.709 310.56H320.983V309.81C322.985 309.81 324.279 309.361 324.865 308.464C325.452 307.549 325.745 306.359 325.745 304.892V278.185C325.745 276.788 325.478 275.606 324.943 274.64C324.408 273.674 323.175 273.19 321.242 273.19H320.983V272.44H348.493Z" fill="black"></path>
<path d="M402.617 272.44V273.19C400.737 273.277 399.055 273.82 397.571 274.821C396.087 275.804 394.586 277.4 393.068 279.608L386.029 290.09V304.892C386.029 306.583 386.365 307.825 387.038 308.619C387.728 309.413 388.962 309.81 390.739 309.81V310.56H372.83V309.81C374.797 309.81 376.074 309.37 376.66 308.49C377.247 307.593 377.54 306.393 377.54 304.892V292.16L366.205 277.124C364.963 275.451 363.945 274.381 363.151 273.915C362.375 273.432 361.417 273.19 360.279 273.19V272.44H379.041V273.19C378.058 273.225 377.281 273.346 376.712 273.553C376.143 273.76 375.858 274.226 375.858 274.95C375.858 275.589 376.35 276.589 377.333 277.952L384.424 288.045L390.118 279.608C391.101 278.125 391.593 276.779 391.593 275.571C391.593 274.967 391.343 274.424 390.842 273.941C390.359 273.458 389.514 273.208 388.306 273.19V272.44H402.617Z" fill="black"></path>
<path d="M434.149 281.912H433.139C432.449 279.531 431.354 277.659 429.853 276.296C428.352 274.916 426.532 274.226 424.392 274.226C423.34 274.226 422.374 274.441 421.494 274.873C420.631 275.287 419.941 275.891 419.423 276.684C418.923 277.461 418.673 278.358 418.673 279.376C418.673 279.962 418.768 280.54 418.958 281.109C419.165 281.679 419.648 282.378 420.407 283.206C421.166 284.034 422.322 284.948 423.875 285.949C425.617 287.036 426.678 287.726 427.058 288.019C429.232 289.382 431.009 290.65 432.389 291.823C433.769 292.997 434.822 294.265 435.546 295.628C436.271 296.991 436.633 298.535 436.633 300.26C436.633 301.847 436.323 303.297 435.701 304.608C435.098 305.902 434.226 307.032 433.088 307.998C431.966 308.947 430.621 309.689 429.05 310.224C427.498 310.741 425.807 311 423.978 311C422.098 311 419.924 310.646 417.457 309.939C417.181 309.87 416.827 309.792 416.396 309.706C415.981 309.62 415.611 309.577 415.283 309.577C414.472 309.577 413.885 309.999 413.523 310.845H412.617L412.85 300.079H413.859C414.187 302.115 414.886 303.814 415.956 305.177C417.043 306.54 418.267 307.532 419.63 308.153C420.993 308.757 422.331 309.059 423.642 309.059C425.557 309.059 427.135 308.524 428.378 307.455C429.637 306.385 430.267 305.082 430.267 303.547C430.267 302.512 429.999 301.614 429.465 300.855C428.947 300.079 428.162 299.32 427.11 298.578C426.057 297.819 424.073 296.508 421.157 294.644C419.622 293.644 418.311 292.678 417.224 291.746C416.154 290.814 415.317 289.926 414.713 289.08C414.11 288.218 413.678 287.364 413.419 286.518C413.178 285.656 413.057 284.741 413.057 283.775C413.057 281.912 413.532 280.074 414.48 278.263C415.447 276.451 416.81 274.976 418.569 273.837C420.329 272.681 422.339 272.104 424.599 272.104C425.652 272.104 426.661 272.207 427.627 272.414C427.886 272.449 428.231 272.526 428.662 272.647C429.094 272.75 429.456 272.837 429.749 272.906C430.508 273.044 431.078 273.113 431.457 273.113C432.044 273.113 432.449 273.018 432.674 272.828C432.915 272.638 433.139 272.362 433.346 272H434.149V281.912Z" fill="black"></path>
<path d="M532.614 286.001V286.725C531.648 286.829 530.812 287.191 530.104 287.812C529.397 288.433 528.802 289.149 528.319 289.96C527.853 290.754 526.938 292.505 525.575 295.214C525.196 295.973 524.816 296.697 524.437 297.388C524.074 298.06 523.747 298.681 523.453 299.251L525.679 301.683C526.61 302.684 527.473 303.521 528.267 304.194C529.06 304.867 529.897 305.419 530.777 305.85C531.674 306.281 532.554 306.497 533.417 306.497C534.176 306.497 534.814 306.385 535.332 306.161C535.849 305.936 536.427 305.608 537.066 305.177L537.48 305.488C536.634 307.144 535.453 308.472 533.934 309.473C532.433 310.457 530.63 310.948 528.526 310.948C526.852 310.948 525.411 310.733 524.204 310.301C523.013 309.853 522.021 309.301 521.228 308.645C520.434 307.972 519.58 307.118 518.666 306.083C517.337 307.308 516.216 308.24 515.301 308.878C514.387 309.516 513.3 310.025 512.04 310.405C510.781 310.767 509.246 310.948 507.434 310.948C504.984 310.948 502.974 310.577 501.404 309.835C499.834 309.076 498.644 308.162 497.833 307.092C497.022 306.023 496.47 304.953 496.177 303.883C495.883 302.796 495.737 301.847 495.737 301.036C495.737 298.173 496.547 295.921 498.169 294.282C499.808 292.643 501.766 291.185 504.044 289.908C502.75 288.683 501.62 287.295 500.654 285.742C499.705 284.172 499.23 282.593 499.23 281.006C499.23 279.902 499.549 278.668 500.188 277.305C500.826 275.925 502.042 274.709 503.837 273.656C505.648 272.587 508.159 272.052 511.368 272.052C513.921 272.052 515.931 272.466 517.397 273.294C518.881 274.122 519.873 275.071 520.374 276.141C520.874 277.193 521.124 278.159 521.124 279.039C521.124 280.782 520.434 282.36 519.054 283.775C517.674 285.173 515.689 286.492 513.102 287.735C514.154 288.77 515.586 290.305 517.397 292.341C519.226 294.36 520.71 296.059 521.849 297.439C522.522 296.128 523.022 294.989 523.35 294.023C523.695 293.04 523.867 291.987 523.867 290.866C523.867 289.589 523.539 288.589 522.884 287.864C522.246 287.139 521.461 286.76 520.529 286.725V286.001H532.614ZM511.161 285.794C513.231 284.638 514.266 283.171 514.266 281.394C514.266 280.911 514.154 280.117 513.93 279.013C513.723 277.909 513.265 276.857 512.558 275.856C511.851 274.838 510.833 274.329 509.504 274.329C508.555 274.329 507.719 274.657 506.994 275.313C506.269 275.968 505.907 276.822 505.907 277.875C505.907 278.962 506.287 280.04 507.046 281.109C507.822 282.179 509.194 283.741 511.161 285.794ZM505.959 292.082C503.94 293.497 502.931 295.162 502.931 297.077C502.931 298.336 503.293 299.725 504.018 301.244C504.743 302.762 505.76 304.056 507.072 305.125C508.383 306.195 509.815 306.73 511.368 306.73C513.369 306.73 515.241 305.859 516.983 304.116C515.741 302.477 514.007 300.459 511.782 298.06C509.556 295.662 507.615 293.67 505.959 292.082Z" fill="black"></path>
<path d="M618.684 272.259L631.494 305.229C632.184 306.92 632.995 308.084 633.927 308.723C634.859 309.344 636.006 309.766 637.369 309.991V310.741H619.305V309.991C621.772 309.853 623.006 309.076 623.006 307.662C623.006 307.437 622.963 307.127 622.877 306.73C622.808 306.316 622.704 305.885 622.566 305.436C622.445 304.97 622.368 304.685 622.333 304.582L619.15 296.482H607.763L605.046 304.271C604.701 305.203 604.528 306.048 604.528 306.808C604.528 307.981 604.873 308.774 605.563 309.188C606.253 309.585 607.073 309.853 608.022 309.991V310.741H596.583V309.991C597.774 309.87 598.887 309.318 599.922 308.334C600.957 307.334 601.958 305.505 602.924 302.848L613.741 272.259H618.684ZM608.643 293.946H618.141L613.224 281.109L608.643 293.946Z" fill="black"></path>
<path d="M682.358 282.973H681.607C680.606 280.333 678.933 278.194 676.587 276.555C674.257 274.898 671.531 274.07 668.409 274.07C665.993 274.07 663.983 274.588 662.379 275.623C660.774 276.658 659.524 278.038 658.626 279.764C657.746 281.472 657.134 283.326 656.789 285.328C656.444 287.329 656.271 289.443 656.271 291.668C656.271 297.189 657.367 301.433 659.558 304.401C661.766 307.351 664.734 308.826 668.46 308.826C671.135 308.826 672.808 308.429 673.481 307.636C674.154 306.842 674.49 305.669 674.49 304.116V299.717C674.49 298.837 674.421 298.06 674.283 297.388C674.145 296.715 673.783 296.102 673.196 295.55C672.627 294.981 671.756 294.662 670.583 294.593V293.79H686.472V294.593C684.143 294.903 682.979 296.326 682.979 298.863V308.153C678.907 310.017 674.301 310.948 669.159 310.948C667.089 310.948 665.208 310.81 663.518 310.534C661.844 310.241 660.352 309.844 659.04 309.344C657.729 308.826 656.625 308.274 655.728 307.687C654.831 307.084 653.985 306.411 653.192 305.669C652.105 304.634 651.13 303.443 650.267 302.098C649.422 300.752 648.723 299.19 648.171 297.413C647.636 295.619 647.369 293.652 647.369 291.513C647.369 288.632 647.878 286.001 648.896 283.62C649.931 281.239 651.389 279.177 653.269 277.435C655.15 275.675 657.298 274.338 659.713 273.423C662.146 272.509 664.708 272.052 667.399 272.052C668.918 272.052 670.229 272.155 671.333 272.362C672.437 272.569 674.292 273.018 676.897 273.708C677.725 273.984 678.622 274.122 679.589 274.122C680.606 274.122 681.279 273.449 681.607 272.104H682.358V282.973Z" fill="black"></path>
<path d="M723.982 272.44L724.293 280.98H723.542C723.197 279.548 722.809 278.366 722.378 277.435C721.963 276.503 721.368 275.796 720.592 275.313C719.815 274.812 718.754 274.562 717.409 274.562H709.723V290.581H715.856C717.685 290.581 719.013 290.176 719.841 289.365C720.687 288.554 721.178 287.355 721.316 285.768H722.067V296.948H721.316C721.058 295.257 720.428 294.127 719.427 293.557C718.427 292.988 717.236 292.703 715.856 292.703H709.723V303.676C709.723 306.851 711.362 308.438 714.64 308.438H716.969C718.539 308.438 719.815 308.231 720.799 307.817C721.8 307.403 722.619 306.695 723.257 305.695C723.913 304.677 724.5 303.245 725.017 301.399H725.768L725.198 310.56H696.472V309.81C698.474 309.81 699.768 309.361 700.354 308.464C700.941 307.549 701.234 306.359 701.234 304.892V278.185C701.234 276.788 700.967 275.606 700.432 274.64C699.897 273.674 698.664 273.19 696.731 273.19H696.472V272.44H723.982Z" fill="black"></path>
<path d="M749.587 272.233L772.853 296.792V279.35C772.853 277.055 772.387 275.494 771.455 274.666C770.524 273.82 769.1 273.259 767.185 272.983V272.233H780.332V272.983C778.882 273.139 777.804 273.535 777.097 274.174C776.389 274.795 775.932 275.528 775.725 276.374C775.518 277.219 775.415 278.211 775.415 279.35V310.767H774.457L746.559 281.42V302.874C746.559 304.668 746.939 306.204 747.698 307.48C748.474 308.74 749.898 309.447 751.968 309.603V310.353H738.356V309.603C742.168 309.292 744.058 307.42 744.023 303.987V278.754C743.92 278.685 743.782 278.565 743.609 278.392C743.454 278.237 743.195 277.987 742.833 277.642C742.47 277.297 742.143 276.986 741.849 276.71C739.537 274.484 737.51 273.242 735.768 272.983V272.233H749.587Z" fill="black"></path>
<path d="M794.343 272.673H820.973C822.198 272.673 823.216 272.518 824.027 272.207H824.777L824.984 281.161H824.259C823.88 278.539 823.233 276.874 822.319 276.167C821.421 275.442 820.317 275.08 819.006 275.08H811.889V305.125C811.889 306.126 812.001 306.98 812.226 307.687C812.45 308.378 812.907 308.947 813.597 309.395C814.287 309.827 815.297 310.042 816.625 310.042V310.793H798.691V310.042C800.675 310.042 801.96 309.594 802.547 308.697C803.133 307.8 803.427 306.609 803.427 305.125V275.08H796.31C795.102 275.08 794.119 275.468 793.36 276.244C792.601 277.003 791.859 278.642 791.134 281.161H790.332L790.539 272.207H791.289C792.1 272.518 793.118 272.673 794.343 272.673Z" fill="black"></path>
<path d="M856.516 281.912H855.506C854.816 279.531 853.721 277.659 852.22 276.296C850.719 274.916 848.898 274.226 846.759 274.226C845.707 274.226 844.74 274.441 843.861 274.873C842.998 275.287 842.308 275.891 841.79 276.684C841.29 277.461 841.04 278.358 841.04 279.376C841.04 279.962 841.135 280.54 841.324 281.109C841.531 281.679 842.015 282.378 842.774 283.206C843.533 284.034 844.689 284.948 846.241 285.949C847.984 287.036 849.045 287.726 849.425 288.019C851.598 289.382 853.376 290.65 854.756 291.823C856.136 292.997 857.188 294.265 857.913 295.628C858.638 296.991 859 298.535 859 300.26C859 301.847 858.689 303.297 858.068 304.608C857.464 305.902 856.593 307.032 855.454 307.998C854.333 308.947 852.987 309.689 851.417 310.224C849.865 310.741 848.174 311 846.345 311C844.464 311 842.291 310.646 839.823 309.939C839.547 309.87 839.194 309.792 838.762 309.706C838.348 309.62 837.977 309.577 837.65 309.577C836.839 309.577 836.252 309.999 835.89 310.845H834.984L835.217 300.079H836.226C836.554 302.115 837.253 303.814 838.322 305.177C839.409 306.54 840.634 307.532 841.997 308.153C843.36 308.757 844.697 309.059 846.009 309.059C847.924 309.059 849.502 308.524 850.744 307.455C852.004 306.385 852.634 305.082 852.634 303.547C852.634 302.512 852.366 301.614 851.831 300.855C851.314 300.079 850.529 299.32 849.476 298.578C848.424 297.819 846.44 296.508 843.524 294.644C841.989 293.644 840.677 292.678 839.591 291.746C838.521 290.814 837.684 289.926 837.08 289.08C836.476 288.218 836.045 287.364 835.786 286.518C835.545 285.656 835.424 284.741 835.424 283.775C835.424 281.912 835.898 280.074 836.847 278.263C837.813 276.451 839.176 274.976 840.936 273.837C842.696 272.681 844.706 272.104 846.966 272.104C848.019 272.104 849.028 272.207 849.994 272.414C850.253 272.449 850.598 272.526 851.029 272.647C851.46 272.75 851.823 272.837 852.116 272.906C852.875 273.044 853.445 273.113 853.824 273.113C854.411 273.113 854.816 273.018 855.04 272.828C855.282 272.638 855.506 272.362 855.713 272H856.516V281.912Z" fill="black"></path>
<defs>
<clipPath id="clip0_101_159">
<rect width="886" height="255" fill="white"></rect>
</clipPath>
<clipPath id="SvgjsClipPath1079"><rect width="1000" height="1000" x="0" y="0" rx="500" ry="500"></rect></clipPath></defs>
</svg></svg></g></g></svg>