<svg width="1728" height="1117" viewBox="0 0 1728 1117" fill="none" xmlns="http://www.w3.org/2000/svg">
<mask id="mask0_41_98" style="mask-type:alpha" maskUnits="userSpaceOnUse" x="0" y="0" width="1728" height="1117">
<path d="M0 999.795V0H1728V999.795C1396.83 1098.55 1017.35 1118.98 869.012 1116.85C484.522 1116.85 129.466 1038.82 0 999.795Z" fill="#D9D9D9"/>
</mask>
<g mask="url(#mask0_41_98)">
<g clip-path="url(#clip0_41_98)">
<rect width="1728" height="1117" fill="url(#paint0_linear_41_98)"/>
<path d="M513.536 908.067C473.868 924.681 458.801 965.408 484.728 988.658C538.071 1036.5 757.673 1012.87 768.005 980.437C778.184 948.487 596.311 873.39 513.536 908.067Z" stroke="#FFF6F6" stroke-opacity="0.03" stroke-width="3.36218" stroke-miterlimit="10"/>
<path d="M611.828 801.653C702.439 769.905 854.583 995.947 791.782 1049.31C753.169 1082.13 659.697 1078.03 583.472 1067.24C511.913 1057.12 409.665 1015.73 384.438 946.989C371.081 910.497 379.099 858.504 407.389 840.297C429.283 826.209 458.839 832.547 465.36 830.204C496.443 843.101 501.005 848.114 525.77 851.139C558.14 855.095 586.91 810.382 611.828 801.653Z" stroke="#FFF6F6" stroke-opacity="0.03" stroke-width="3.36218" stroke-miterlimit="10"/>
<path d="M703.764 690.476C808.999 707.281 923.357 1037.44 809.201 1113.42C736.499 1161.81 609.754 1140.45 521.41 1114.86C440.258 1091.36 305.13 1012.94 277.792 900.557C261.899 835.255 281.21 743.39 336.541 716.818C380.645 695.642 437.474 713.85 447.48 715.252C506.622 747.078 511.404 763.269 555.442 774.168C613.749 788.583 659.784 683.417 703.764 690.476Z" stroke="#FFF6F6" stroke-opacity="0.03" stroke-width="3.36218" stroke-miterlimit="10"/>
<path d="M789.035 580.038C905.227 611.018 985.466 1079.41 819.956 1178.26C713.136 1242.06 553.08 1203.79 452.684 1163.22C361.863 1126.52 194.422 1011.05 164.481 854.855C146.418 760.657 176.561 629.12 259.019 594.068C325.277 565.892 409.895 594.808 422.916 601.031C513.949 644.563 515.101 679.154 578.479 697.928C662.665 722.935 728.183 563.847 789.035 580.038Z" stroke="#FFF6F6" stroke-opacity="0.03" stroke-width="3.36218" stroke-miterlimit="10"/>
<path d="M869.179 474.623C997.854 519.316 1042.24 1125.93 825.583 1248.14C684.501 1327.01 491.2 1272.26 378.84 1216.61C278.243 1166.8 78.7007 1014.29 46.0037 814.176C25.9055 691.167 66.7454 519.912 176.34 476.323C264.79 441.174 376.526 482.401 393.206 491.803C510.55 557.95 513.584 600.205 596.282 626.72C706.366 662.319 792.156 447.878 869.179 474.623Z" stroke="#FFF6F6" stroke-opacity="0.03" stroke-width="3.36218" stroke-miterlimit="10"/>
<path d="M90.0606 359.979C200.664 317.868 339.45 371.349 359.894 383.987C503.232 472.606 508.533 522.341 610.522 556.846C746.524 602.855 853.094 332.513 945.654 370.542C1087.83 428.959 1095.81 1174.57 827.542 1319.35C652.496 1413.81 425.576 1342.14 301.318 1271.33C190.965 1208.46 -40.535 1018.91 -76.0647 774.841C-98.1507 623.032 -46.6903 412.038 90.0606 359.979Z" stroke="#FFF6F6" stroke-opacity="0.03" stroke-width="3.36218" stroke-miterlimit="10"/>
<path d="M1286.89 283.152C1243.33 282.788 1191.08 207.219 1230.15 194.601C1252.72 187.302 1312.46 198.845 1335.93 219.387C1368.99 248.293 1316.87 283.412 1286.89 283.152Z" stroke="#FFF6F6" stroke-opacity="0.03" stroke-width="3.36218" stroke-miterlimit="10"/>
<path d="M1168.49 205.183C1172.76 195.042 1192.72 190.538 1210.94 178.189C1247.89 153.124 1253.19 141.216 1279.43 126.1C1289.67 120.194 1303.44 112.435 1316.88 115.988C1337.47 121.433 1342.61 145 1368.74 186.505C1402.61 240.437 1415.44 254.381 1405.76 282.96C1403.51 289.606 1400.59 311.127 1384.27 324.254C1361.68 342.405 1335.19 328.384 1302.08 340.398C1262.32 354.803 1242.61 380.443 1225.35 369.111C1213.19 361.131 1212.74 339.274 1203.64 301.216C1196.7 272.224 1192.35 253.2 1183.91 237.681C1173.8 219.204 1163.75 216.458 1168.49 205.183Z" stroke="#FFF6F6" stroke-opacity="0.03" stroke-width="3.36218" stroke-miterlimit="10"/>
<path d="M1101.9 226.32C1102.64 208.343 1130.87 199.642 1154.14 173.665C1201.85 120.377 1179.75 82.2997 1217.99 43.368C1234.22 26.8408 1259.69 10.8321 1285.21 13.934C1321.43 18.3419 1333.6 55.7658 1389.36 131.641C1462.27 230.843 1493.32 250.271 1486.51 303.137C1485.12 313.912 1483.77 355.283 1455.27 380.184C1417.28 413.392 1371.73 383.18 1312.24 408.139C1245.77 435.989 1220.93 495.529 1198.52 483.208C1182.95 474.652 1188.92 440.195 1176.95 372.991C1168.48 325.224 1163.25 297.308 1146.32 274.442C1124.95 245.604 1101.1 245.844 1101.9 226.32Z" stroke="#FFF6F6" stroke-opacity="0.03" stroke-width="3.36218" stroke-miterlimit="10"/>
<path d="M1035.24 247.227C1032.36 221.461 1068.91 208.506 1097.27 168.902C1155.65 87.3702 1105.32 23.6428 1156.49 -39.6044C1178.39 -66.6665 1215.96 -90.8764 1253.48 -88.3507C1305.47 -84.8551 1324.69 -33.8616 1410 76.5473C1522.16 220.808 1570.46 246.209 1567.29 323.083C1566.66 338.074 1566.95 399.189 1526.3 435.912C1472.9 484.149 1408.19 437.688 1322.44 475.669C1229.2 516.964 1199.32 610.375 1171.68 597.103C1152.72 587.922 1164.86 540.905 1150.26 444.555C1140.17 378.014 1134.1 341.339 1108.71 310.992C1075.98 271.888 1038.32 274.98 1035.24 247.227Z" stroke="#FFF6F6" stroke-opacity="0.03" stroke-width="3.36218" stroke-miterlimit="10"/>
<path d="M968.422 268.075C961.959 234.55 1006.74 217.293 1040.25 164.091C1109.18 54.2677 1030.5 -34.8604 1094.84 -122.625C1122.34 -160.174 1172.1 -192.594 1221.59 -190.693C1289.41 -188.081 1315.36 -123.345 1430.44 21.4053C1581.5 210.974 1647.24 242.281 1647.83 342.981C1647.94 362.188 1649.84 442.99 1597.09 491.582C1528.2 554.791 1444.46 492.11 1332.39 543.152C1212.36 597.833 1177.43 725.201 1144.69 710.95C1122.31 701.174 1140.65 641.557 1123.41 516.071C1111.68 430.745 1104.8 385.36 1070.95 347.494C1026.83 298.172 975.374 304.126 968.422 268.075Z" stroke="#FFF6F6" stroke-opacity="0.03" stroke-width="3.36218" stroke-miterlimit="10"/>
<path d="M901.482 288.914C912.304 333.282 977.544 324.446 1033.04 383.987C1075.36 429.382 1083.05 483.458 1096.41 587.577C1116.26 742.189 1091.76 814.416 1117.54 824.778C1155.44 840.018 1195.4 678.683 1342.24 610.624C1480.58 546.513 1583.52 625.548 1667.77 547.243C1732.72 486.867 1729.11 386.378 1728.27 362.86C1723.79 238.363 1640.72 201.121 1450.75 -33.756C1305.9 -212.848 1273.23 -291.307 1189.56 -293.045C1128.1 -294.322 1066.12 -253.671 1033.04 -205.655C955.573 -93.2964 1062.74 21.2804 983.104 159.27C944.511 226.138 891.409 247.639 901.482 288.914Z" stroke="#FFF6F6" stroke-opacity="0.03" stroke-width="3.36218" stroke-miterlimit="10"/>
<path d="M1455.12 1003.01C1443.75 997.253 1419.88 1008.35 1417.77 1025.65C1415.38 1045.27 1442.39 1061.5 1454.26 1056.46C1468.3 1050.48 1470.21 1010.64 1455.12 1003.01Z" stroke="#FFF6F6" stroke-opacity="0.03" stroke-width="3.36218" stroke-miterlimit="10"/>
<path d="M1487.16 1107.26C1506.53 1089.14 1515 1055.88 1524.69 998.876C1534.29 942.351 1532.79 901.882 1524.35 898.944C1519.75 897.359 1506.72 909.757 1495.54 918.842C1474.61 935.801 1438.8 933.919 1429.62 935.753C1396.01 942.476 1386.14 954.96 1372.09 978.872C1365.59 989.916 1350.42 1014.4 1343.75 1043.21C1333.57 1086.84 1287.95 1100.29 1293.51 1117.77C1298.19 1132.37 1343.38 1135.91 1372.69 1136.33C1414.69 1136.92 1457.19 1135.24 1487.16 1107.26Z" stroke="#FFF6F6" stroke-opacity="0.03" stroke-width="3.36218" stroke-miterlimit="10"/>
<path d="M1520.75 1155.98C1552.6 1123.59 1565.13 1069.25 1584.43 967.617C1604.04 865.496 1603.91 795.449 1594.25 792.837C1587 790.84 1563.52 816.087 1543.57 834.131C1505.96 868.29 1438.62 862.672 1424.75 864.862C1361.47 874.638 1345.87 898.06 1321.35 942.331C1311.13 960.77 1283.1 1005.71 1270.33 1058.79C1250.67 1140.1 1157.48 1161.39 1165.19 1191.54C1171.63 1216.64 1258.06 1220.49 1312.44 1218.43C1389.22 1215.44 1466.92 1210.71 1520.75 1155.98Z" stroke="#FFF6F6" stroke-opacity="0.03" stroke-width="3.36218" stroke-miterlimit="10"/>
<path d="M1554.15 1204.38C1598.51 1157.74 1614.96 1082.27 1643.98 936.041C1673.45 788.295 1674.82 688.834 1663.97 686.356C1654.03 684.051 1620.12 722.08 1591.45 749.133C1537.24 800.577 1438.31 791.118 1419.73 793.596C1326.79 806.003 1305.39 840.7 1270.45 905.426C1256.51 931.249 1215.63 996.657 1196.74 1073.97C1167.64 1192.98 1026.86 1222.09 1036.71 1264.91C1044.93 1300.51 1172.59 1304.83 1252.03 1300.11C1363.57 1293.82 1476.59 1285.93 1554.15 1204.38Z" stroke="#FFF6F6" stroke-opacity="0.03" stroke-width="3.36218" stroke-miterlimit="10"/>
<path d="M1587.45 1252.75C1644.34 1191.86 1664.69 1095.25 1703.43 904.427C1742.8 711.075 1745.68 582.227 1733.6 579.836C1720.96 577.311 1676.61 627.968 1639.23 664.048C1568.33 732.663 1437.9 719.459 1414.62 722.291C1292.03 737.167 1264.65 783.224 1219.46 868.473C1201.74 901.662 1148.07 987.553 1123.08 1089.12C1084.5 1245.81 896.143 1282.76 908.146 1338.24C918.123 1384.33 1087.03 1388.93 1191.53 1381.77C1337.79 1371.91 1486.19 1361.14 1587.45 1252.75Z" stroke="#FFF6F6" stroke-opacity="0.03" stroke-width="3.36218" stroke-miterlimit="10"/>
<path d="M1409.46 650.958C1257.23 668.244 1224.13 725.864 1168.43 831.5C1147.02 872.112 1080.46 978.43 1049.36 1104.23C1001.35 1298.62 765.384 1343.4 779.529 1411.54C791.282 1468.2 1001.43 1473 1130.98 1463.4C1312.01 1449.95 1495.78 1436.33 1620.72 1301.1C1690.14 1225.95 1714.37 1108.24 1762.84 872.794C1812.03 633.826 1816.42 475.621 1803.17 473.297C1787.8 470.609 1733.07 533.798 1686.98 578.934C1599.36 664.71 1437.46 647.78 1409.46 650.958Z" stroke="#FFF6F6" stroke-opacity="0.03" stroke-width="3.36218" stroke-miterlimit="10"/>
<path d="M171.683 189.04C188.968 255.303 313.033 224.179 460.722 373.423C513.642 426.904 549.123 482.843 619.165 491.544C626.232 492.418 696.399 500.091 745.919 455.051C808.221 398.392 770.195 319.789 842.906 210.167C869.688 169.786 874.143 181.511 893.8 149.667C977.688 13.7322 849.743 -124.267 923.568 -262.314C957.552 -325.859 1008.07 -340.447 1003.27 -348.744C982.547 -384.343 124.976 10.4863 171.683 189.04Z" stroke="#FFF6F6" stroke-opacity="0.03" stroke-width="3.36218" stroke-miterlimit="10"/>
<path d="M638.37 400.956C642.614 400.38 688.88 403.837 720.617 371.992C760.746 331.783 732.14 276.421 778.117 201.678C795.037 174.155 797.39 181.617 809.431 159.846C860.805 66.9441 768.601 -26.5151 813.752 -117.458C834.648 -159.559 867.633 -169.21 862.726 -173.321C840.534 -192.066 274.488 84.8638 318.949 205.366C335.619 250.559 426.623 234.521 530.754 331.86C568.617 367.229 594.256 406.939 638.37 400.956Z" stroke="#FFF6F6" stroke-opacity="0.03" stroke-width="3.36218" stroke-miterlimit="10"/>
<path d="M657.575 310.359C658.785 307.314 681.409 307.382 695.314 288.934C713.367 265.002 694.142 233.119 713.328 193.198C720.367 178.544 720.655 181.675 725.072 170.026C744.037 119.925 687.382 71.2944 703.946 27.3881C711.696 6.72186 726.1 3.19745 722.259 2.09307C694.181 6.07843 424.577 159.51 466.166 221.691C482.404 245.988 540.529 244.826 600.737 290.297C623.62 307.583 638.601 320.24 657.575 310.359Z" stroke="#FFF6F6" stroke-opacity="0.03" stroke-width="3.36218" stroke-miterlimit="10"/>
<path d="M676.781 219.771C661.877 176.22 603.205 161.412 581.715 177.516C550.026 201.294 577.057 232.255 613.403 238.017C640.569 242.29 693.835 269.612 676.781 219.771Z" stroke="#FFF6F6" stroke-opacity="0.03" stroke-width="3.36218" stroke-miterlimit="10"/>
</g>
</g>
<defs>
<linearGradient id="paint0_linear_41_98" x1="134.823" y1="277.947" x2="1612.29" y2="822.55" gradientUnits="userSpaceOnUse">
<stop stop-color="#0C3512"/>
<stop offset="1" stop-color="#147323"/>
</linearGradient>
<clipPath id="clip0_41_98">
<rect width="1728" height="1117" fill="white"/>
</clipPath>
</defs>
</svg>
