<svg width="1893" height="1820" viewBox="0 0 1893 1820" fill="none" xmlns="http://www.w3.org/2000/svg">
<path d="M595.536 1260.07C555.868 1276.68 540.801 1317.41 566.728 1340.66C620.071 1388.5 839.673 1364.87 850.005 1332.44C860.184 1300.49 678.311 1225.39 595.536 1260.07Z" stroke="#78EB54" stroke-opacity="0.28" stroke-miterlimit="10"/>
<path d="M693.828 1153.65C784.439 1121.9 936.583 1347.95 873.782 1401.31C835.169 1434.13 741.697 1430.03 665.472 1419.24C593.913 1409.12 491.665 1367.73 466.438 1298.99C453.081 1262.5 461.099 1210.5 489.389 1192.3C511.283 1178.21 540.839 1184.55 547.36 1182.2C578.443 1195.1 583.005 1200.11 607.77 1203.14C640.14 1207.1 668.91 1162.38 693.828 1153.65Z" stroke="#78EB54" stroke-opacity="0.28" stroke-miterlimit="10"/>
<path d="M785.764 1042.48C890.999 1059.28 1005.36 1389.44 891.201 1465.42C818.499 1513.81 691.754 1492.45 603.41 1466.86C522.258 1443.36 387.13 1364.94 359.792 1252.56C343.899 1187.25 363.21 1095.39 418.541 1068.82C462.645 1047.64 519.474 1065.85 529.48 1067.25C588.622 1099.08 593.404 1115.27 637.442 1126.17C695.749 1140.58 741.784 1035.42 785.764 1042.48Z" stroke="#78EB54" stroke-opacity="0.28" stroke-miterlimit="10"/>
<path d="M871.035 932.038C987.227 963.018 1067.47 1431.41 901.956 1530.26C795.136 1594.06 635.08 1555.79 534.684 1515.22C443.863 1478.52 276.422 1363.05 246.481 1206.86C228.418 1112.66 258.561 981.12 341.019 946.068C407.277 917.892 491.895 946.808 504.916 953.031C595.949 996.563 597.101 1031.15 660.479 1049.93C744.665 1074.93 810.183 915.847 871.035 932.038Z" stroke="#78EB54" stroke-opacity="0.28" stroke-miterlimit="10"/>
<path d="M951.179 826.623C1079.85 871.316 1124.24 1477.93 907.583 1600.14C766.501 1679.01 573.2 1624.26 460.84 1568.61C360.243 1518.8 160.701 1366.29 128.004 1166.18C107.905 1043.17 148.745 871.912 258.34 828.323C346.79 793.174 458.526 834.401 475.206 843.803C592.55 909.95 595.584 952.205 678.282 978.72C788.366 1014.32 874.156 799.878 951.179 826.623Z" stroke="#78EB54" stroke-opacity="0.28" stroke-miterlimit="10"/>
<path d="M172.061 711.979C282.664 669.868 421.45 723.349 441.894 735.987C585.232 824.606 590.533 874.341 692.522 908.846C828.524 954.855 935.094 684.513 1027.65 722.542C1169.83 780.959 1177.81 1526.57 909.542 1671.35C734.496 1765.81 507.576 1694.14 383.318 1623.33C272.965 1560.46 41.465 1370.91 5.93527 1126.84C-16.1507 975.032 35.3097 764.038 172.061 711.979Z" stroke="#78EB54" stroke-opacity="0.28" stroke-miterlimit="10"/>
<path d="M1368.89 635.152C1325.33 634.788 1273.08 559.219 1312.15 546.601C1334.72 539.302 1394.46 550.845 1417.93 571.387C1450.99 600.293 1398.87 635.412 1368.89 635.152Z" stroke="#78EB54" stroke-opacity="0.28" stroke-miterlimit="10"/>
<path d="M1250.49 557.183C1254.76 547.042 1274.72 542.538 1292.94 530.189C1329.89 505.124 1335.19 493.216 1361.43 478.1C1371.67 472.194 1385.44 464.435 1398.88 467.988C1419.47 473.433 1424.61 497 1450.74 538.505C1484.61 592.437 1497.44 606.381 1487.76 634.96C1485.51 641.606 1482.59 663.127 1466.27 676.254C1443.68 694.405 1417.19 680.384 1384.08 692.398C1344.32 706.803 1324.61 732.443 1307.35 721.111C1295.19 713.131 1294.74 691.274 1285.64 653.216C1278.7 624.224 1274.35 605.2 1265.91 589.681C1255.8 571.204 1245.75 568.458 1250.49 557.183Z" stroke="#78EB54" stroke-opacity="0.28" stroke-miterlimit="10"/>
<path d="M1183.9 578.32C1184.64 560.343 1212.87 551.642 1236.14 525.665C1283.85 472.377 1261.75 434.3 1299.99 395.368C1316.22 378.841 1341.69 362.832 1367.21 365.934C1403.43 370.342 1415.6 407.766 1471.36 483.641C1544.27 582.843 1575.32 602.271 1568.51 655.137C1567.12 665.912 1565.77 707.283 1537.27 732.184C1499.28 765.392 1453.73 735.18 1394.24 760.139C1327.77 787.989 1302.93 847.529 1280.52 835.208C1264.95 826.652 1270.92 792.195 1258.95 724.991C1250.48 677.224 1245.25 649.308 1228.32 626.442C1206.95 597.604 1183.1 597.844 1183.9 578.32Z" stroke="#78EB54" stroke-opacity="0.28" stroke-miterlimit="10"/>
<path d="M1117.24 599.227C1114.36 573.461 1150.91 560.506 1179.27 520.902C1237.65 439.37 1187.32 375.643 1238.49 312.396C1260.39 285.334 1297.96 261.124 1335.48 263.649C1387.47 267.145 1406.69 318.138 1492 428.547C1604.16 572.808 1652.46 598.209 1649.29 675.083C1648.66 690.074 1648.95 751.189 1608.3 787.912C1554.9 836.149 1490.19 789.688 1404.44 827.669C1311.2 868.964 1281.32 962.375 1253.68 949.103C1234.72 939.922 1246.86 892.905 1232.26 796.555C1222.17 730.014 1216.1 693.339 1190.71 662.992C1157.98 623.888 1120.32 626.98 1117.24 599.227Z" stroke="#78EB54" stroke-opacity="0.28" stroke-miterlimit="10"/>
<path d="M1050.42 620.075C1043.96 586.55 1088.74 569.293 1122.25 516.091C1191.18 406.268 1112.5 317.14 1176.84 229.375C1204.34 191.826 1254.1 159.406 1303.59 161.307C1371.41 163.919 1397.36 228.655 1512.44 373.405C1663.5 562.974 1729.24 594.281 1729.83 694.981C1729.94 714.188 1731.84 794.99 1679.09 843.582C1610.2 906.791 1526.46 844.11 1414.39 895.152C1294.36 949.833 1259.43 1077.2 1226.69 1062.95C1204.31 1053.17 1222.65 993.557 1205.41 868.071C1193.68 782.745 1186.8 737.36 1152.95 699.494C1108.83 650.172 1057.37 656.126 1050.42 620.075Z" stroke="#78EB54" stroke-opacity="0.28" stroke-miterlimit="10"/>
<path d="M983.482 640.914C994.304 685.282 1059.54 676.446 1115.04 735.987C1157.36 781.382 1165.05 835.458 1178.41 939.577C1198.26 1094.19 1173.76 1166.42 1199.54 1176.78C1237.44 1192.02 1277.4 1030.68 1424.24 962.624C1562.58 898.513 1665.52 977.548 1749.77 899.243C1814.72 838.867 1811.11 738.378 1810.27 714.86C1805.79 590.363 1722.72 553.121 1532.75 318.244C1387.9 139.152 1355.23 60.6935 1271.56 58.9553C1210.1 57.6781 1148.12 98.3288 1115.04 146.345C1037.57 258.704 1144.74 373.28 1065.1 511.27C1026.51 578.138 973.409 599.639 983.482 640.914Z" stroke="#78EB54" stroke-opacity="0.28" stroke-miterlimit="10"/>
<path d="M1537.12 1355.01C1525.75 1349.25 1501.88 1360.35 1499.77 1377.65C1497.38 1397.27 1524.39 1413.5 1536.26 1408.46C1550.3 1402.48 1552.21 1362.64 1537.12 1355.01Z" stroke="#78EB54" stroke-opacity="0.28" stroke-miterlimit="10"/>
<path d="M1569.16 1459.26C1588.53 1441.14 1597 1407.88 1606.69 1350.88C1616.29 1294.35 1614.79 1253.88 1606.35 1250.94C1601.75 1249.36 1588.72 1261.76 1577.54 1270.84C1556.61 1287.8 1520.8 1285.92 1511.62 1287.75C1478.01 1294.48 1468.14 1306.96 1454.09 1330.87C1447.59 1341.92 1432.42 1366.4 1425.75 1395.21C1415.57 1438.84 1369.95 1452.29 1375.51 1469.77C1380.19 1484.37 1425.38 1487.91 1454.69 1488.33C1496.69 1488.92 1539.19 1487.24 1569.16 1459.26Z" stroke="#78EB54" stroke-opacity="0.28" stroke-miterlimit="10"/>
<path d="M1602.75 1507.98C1634.6 1475.59 1647.13 1421.25 1666.43 1319.62C1686.04 1217.5 1685.91 1147.45 1676.25 1144.84C1669 1142.84 1645.52 1168.09 1625.57 1186.13C1587.96 1220.29 1520.62 1214.67 1506.75 1216.86C1443.47 1226.64 1427.87 1250.06 1403.35 1294.33C1393.13 1312.77 1365.1 1357.71 1352.33 1410.79C1332.67 1492.1 1239.48 1513.39 1247.19 1543.54C1253.63 1568.64 1340.06 1572.49 1394.44 1570.43C1471.22 1567.44 1548.92 1562.71 1602.75 1507.98Z" stroke="#78EB54" stroke-opacity="0.28" stroke-miterlimit="10"/>
<path d="M1636.15 1556.38C1680.51 1509.74 1696.96 1434.27 1725.98 1288.04C1755.45 1140.29 1756.82 1040.83 1745.97 1038.36C1736.03 1036.05 1702.12 1074.08 1673.45 1101.13C1619.24 1152.58 1520.31 1143.12 1501.73 1145.6C1408.79 1158 1387.39 1192.7 1352.45 1257.43C1338.51 1283.25 1297.63 1348.66 1278.74 1425.97C1249.64 1544.98 1108.86 1574.09 1118.71 1616.91C1126.93 1652.51 1254.59 1656.83 1334.03 1652.11C1445.57 1645.82 1558.59 1637.93 1636.15 1556.38Z" stroke="#78EB54" stroke-opacity="0.28" stroke-miterlimit="10"/>
<path d="M1669.45 1604.75C1726.34 1543.86 1746.69 1447.25 1785.43 1256.43C1824.8 1063.07 1827.68 934.227 1815.6 931.836C1802.96 929.311 1758.61 979.968 1721.23 1016.05C1650.33 1084.66 1519.9 1071.46 1496.62 1074.29C1374.03 1089.17 1346.65 1135.22 1301.46 1220.47C1283.74 1253.66 1230.07 1339.55 1205.08 1441.12C1166.5 1597.81 978.143 1634.76 990.146 1690.24C1000.12 1736.33 1169.03 1740.93 1273.53 1733.77C1419.79 1723.91 1568.19 1713.14 1669.45 1604.75Z" stroke="#78EB54" stroke-opacity="0.28" stroke-miterlimit="10"/>
<path d="M1491.46 1002.96C1339.23 1020.24 1306.13 1077.86 1250.43 1183.5C1229.02 1224.11 1162.46 1330.43 1131.36 1456.23C1083.35 1650.62 847.384 1695.4 861.529 1763.54C873.282 1820.2 1083.43 1825 1212.98 1815.4C1394.01 1801.95 1577.78 1788.33 1702.72 1653.1C1772.14 1577.95 1796.37 1460.24 1844.84 1224.79C1894.03 985.826 1898.42 827.621 1885.17 825.297C1869.8 822.609 1815.07 885.798 1768.98 930.934C1681.36 1016.71 1519.46 999.78 1491.46 1002.96Z" stroke="#78EB54" stroke-opacity="0.28" stroke-miterlimit="10"/>
<path d="M253.683 541.04C270.968 607.303 395.033 576.179 542.722 725.423C595.642 778.904 631.123 834.843 701.165 843.544C708.232 844.418 778.399 852.091 827.919 807.051C890.221 750.392 852.195 671.789 924.906 562.167C951.688 521.786 956.143 533.511 975.8 501.667C1059.69 365.732 931.743 227.733 1005.57 89.6858C1039.55 26.1409 1090.07 11.5535 1085.27 3.25624C1064.55 -32.3431 206.976 362.486 253.683 541.04Z" stroke="#78EB54" stroke-opacity="0.28" stroke-miterlimit="10"/>
<path d="M720.37 752.956C724.614 752.38 770.88 755.837 802.617 723.992C842.746 683.783 814.14 628.421 860.117 553.678C877.037 526.155 879.39 533.617 891.431 511.846C942.805 418.944 850.601 325.485 895.752 234.542C916.648 192.441 949.633 182.79 944.726 178.679C922.534 159.934 356.488 436.864 400.949 557.366C417.619 602.559 508.623 586.521 612.754 683.86C650.617 719.229 676.256 758.939 720.37 752.956Z" stroke="#78EB54" stroke-opacity="0.28" stroke-miterlimit="10"/>
<path d="M739.575 662.359C740.785 659.314 763.409 659.382 777.314 640.934C795.367 617.002 776.142 585.119 795.328 545.198C802.367 530.544 802.655 533.675 807.072 522.026C826.037 471.925 769.382 423.294 785.946 379.388C793.696 358.722 808.1 355.197 804.259 354.093C776.181 358.078 506.577 511.51 548.166 573.691C564.404 597.988 622.529 596.826 682.737 642.297C705.62 659.583 720.601 672.24 739.575 662.359Z" stroke="#78EB54" stroke-opacity="0.28" stroke-miterlimit="10"/>
<path d="M758.781 571.771C743.877 528.22 685.205 513.412 663.715 529.516C632.026 553.294 659.057 584.255 695.403 590.017C722.569 594.29 775.835 621.612 758.781 571.771Z" stroke="#78EB54" stroke-opacity="0.28" stroke-miterlimit="10"/>
</svg>
